<?xml version="1.0" encoding="utf-8"?>
<!-- Generator: Adobe Illustrator 21.0.0, SVG Export Plug-In . SVG Version: 6.00 Build 0)  -->
<svg version="1.1"
	 id="svg2" inkscape:version="0.48.2 r9819" sodipodi:docname="GetFile.pdf" xmlns:cc="http://creativecommons.org/ns#" xmlns:dc="http://purl.org/dc/elements/1.1/" xmlns:inkscape="http://www.inkscape.org/namespaces/inkscape" xmlns:rdf="http://www.w3.org/1999/02/22-rdf-syntax-ns#" xmlns:sodipodi="http://sodipodi.sourceforge.net/DTD/sodipodi-0.dtd" xmlns:svg="http://www.w3.org/2000/svg"
	 xmlns="http://www.w3.org/2000/svg" xmlns:xlink="http://www.w3.org/1999/xlink" x="0px" y="0px" viewBox="0 0 100 100"
	 style="enable-background:new 0 0 100 100;" xml:space="preserve">
<style type="text/css">
	.st0{fill:#54B948;}
	.st1{clip-path:url(#SVGID_2_);}
	.st2{fill:#FFFFFF;}
</style>
<sodipodi:namedview  bordercolor="#666666" borderopacity="1" fit-margin-bottom="0" fit-margin-left="0" fit-margin-right="0" fit-margin-top="0" gridtolerance="10" guidetolerance="10" id="namedview4" inkscape:current-layer="g10" inkscape:cx="64.509769" inkscape:cy="-78.03852" inkscape:pageopacity="0" inkscape:pageshadow="2" inkscape:window-height="744" inkscape:window-maximized="0" inkscape:window-width="1121" inkscape:window-x="0" inkscape:window-y="0" inkscape:zoom="0.48224776" objecttolerance="10" pagecolor="#ffffff" showgrid="false">
	</sodipodi:namedview>
<g id="g10" transform="matrix(1.25,0,0,-1.25,-1429.2113,402.72843)" inkscape:groupmode="layer" inkscape:label="GetFile">
	<g id="g3261" transform="matrix(5.2996804,0,0,5.2996804,-4916.1212,-154.78849)">
		<path id="path52" inkscape:connector-curvature="0" class="st0" d="M1143.4,75.7h15.1v13.5h-15.1V75.7z"/>
		<g id="g54">
			<g>
				<defs>
					<rect id="SVGID_1_" x="1100.9" y="37.7" width="100" height="89.4"/>
				</defs>
				<clipPath id="SVGID_2_">
					<use xlink:href="#SVGID_1_"  style="overflow:visible;"/>
				</clipPath>
				<g id="g56" class="st1">
					<g id="g62" transform="translate(1183.0096,47.6816)">
						<path id="path64" inkscape:connector-curvature="0" class="st2" d="M-29.7,30.9h-3.5v6.3h1.8v-5.2h1.7c1.2,0,1.7,0.8,1.7,2.9
							c0,2.1-0.6,2.7-1.7,2.7h-3.9v-6.7h-1.7v6.7h-2.6v1.1h8.7c2.1,0,3.1-1.1,3.1-3.8C-26.2,31.4-27.7,30.9-29.7,30.9"/>
					</g>
				</g>
			</g>
		</g>
	</g>
</g>
</svg>
