<svg version="1.1" id="Layer_1" xmlns="http://www.w3.org/2000/svg" xmlns:xlink="http://www.w3.org/1999/xlink" x="0px" y="0px" viewBox="0 0 116 114.8" style="enable-background:new 0 0 116 114.8;" xml:space="preserve">
                                <style type="text/css">
                                    .st0{fill:#ACC37E;}
                                    .st1{fill-rule:evenodd;clip-rule:evenodd;fill:#ACC37E;}
                                    .st2{opacity:0.8;enable-background:new    ;}
                                    .st3{fill-rule:evenodd;clip-rule:evenodd;fill:#005586;}
                                    .st4{fill-rule:evenodd;clip-rule:evenodd;fill:#F15D3F;}
                                    .st5{fill:#005586;}
                                </style>
                                <g>
                                    <path class="st0" d="M4.3,114.4V98.9h7.9v2.1H6.6v4.7h5.6v2.1H6.6v6.7H4.3z"></path>
                                    <path class="st0" d="M16.7,101.5h-2.2v-2.6h2.2V101.5z M16.7,114.4h-2.2v-11.6h2.2V114.4z"></path>
                                    <path class="st0" d="M27.7,114.4v-6.3c0-0.9,0-3.6-2.9-3.6c-1.8,0-3.1,1.3-3.1,3.6v6.3h-2.2v-11.6h2v1.2h0c1.2-1.6,2.9-1.6,3.4-1.6
                                        c1.8,0,3.3,0.8,4.1,2.1c0.5,0.8,0.7,1.7,0.7,3v6.9H27.7z"></path>
                                    <path class="st0" d="M42.2,114.4v-1.8h0c-0.8,1.4-2.4,2.1-3.9,2.1c-3.9,0-6.2-3-6.2-6.1c0-2.8,2-6.2,6.2-6.2c1.6,0,3.1,0.7,3.9,2h0
                                        v-1.6h2.2v11.6H42.2z M38.2,104.5c-2.7,0-4,2.3-4,4.2c0,2.1,1.7,4.1,4,4.1c2.3,0,4.1-1.9,4.1-4.1C42.3,106.2,40.5,104.5,38.2,104.5
                                        z"></path>
                                    <path class="st0" d="M55.4,114.4v-6.3c0-0.9,0-3.6-2.9-3.6c-1.8,0-3.1,1.3-3.1,3.6v6.3h-2.2v-11.6h2v1.2h0c1.2-1.6,2.9-1.6,3.4-1.6
                                        c1.8,0,3.3,0.8,4.1,2.1c0.5,0.8,0.7,1.7,0.7,3v6.9H55.4z"></path>
                                    <path class="st0" d="M69,106.7c-0.4-0.7-1.2-2.2-3.3-2.2c-2.8,0-3.8,2.4-3.8,4.1c0,2,1.3,4.1,3.8,4.1c1.6,0,2.8-0.9,3.3-2.1h2.4
                                        c-0.9,2.6-3.1,4.1-5.7,4.1c-3.8,0-6-3.1-6-6.1c0-3.1,2.3-6.1,6-6.1c3.3,0,5.3,2.5,5.7,4.2H69z"></path>
                                    <path class="st0" d="M75.7,101.5h-2.2v-2.6h2.2V101.5z M75.7,114.4h-2.2v-11.6h2.2V114.4z"></path>
                                    <path class="st0" d="M88.1,114.4v-1.8h0c-0.8,1.4-2.4,2.1-3.9,2.1c-3.9,0-6.2-3-6.2-6.1c0-2.8,2-6.2,6.2-6.2c1.6,0,3.1,0.7,3.9,2h0
                                        v-1.6h2.2v11.6H88.1z M84.1,104.5c-2.7,0-4,2.3-4,4.2c0,2.1,1.7,4.1,4,4.1c2.3,0,4.1-1.9,4.1-4.1C88.2,106.2,86.4,104.5,84.1,104.5
                                        z"></path>
                                    <path class="st0" d="M95.3,114.4h-2.2V98.9h2.2V114.4z"></path>
                                </g>
                                <g>
                                    <g>
                                        <polygon class="st1" points="66.3,25.1 88.2,25.1 88.2,3.1"></polygon>
                                        <g class="st2">
                                            <g>
                                                <g>
                                                    <polygon class="st3" points="66.3,25.1 78.8,12.6 66.3,0.1"></polygon>
                                                </g>
                                            </g>
                                        </g>
                                        <polygon class="st3" points="66.3,25.1 77.3,36 88.2,25.1"></polygon>
                                        <polygon class="st4" points="99.3,25.1 93.8,19.5 88.2,25.1"></polygon>
                                        <polygon class="st3" points="60.2,31.2 66.3,25.1 60.2,18.9"></polygon>
                                    </g>
                                    <g>
                                        <path class="st5" d="M4.4,60.8H0.2v-7.7h4.2V41h8.7v12.1h5.2v7.7h-5.2v28.5H4.4V60.8z"></path>
                                        <path class="st5" d="M55.2,53.1v36.2h-8v-3.7h-0.1c-1.4,2-3.8,4.8-9.3,4.8c-6.6,0-10.3-3.3-12.1-5.7c-2.7-3.9-2.7-9.7-2.7-12.7
                                            V53.1h8.7v18.5c0,2.9,0,11,7.6,11c5.5,0,7.3-5.2,7.3-10.9V53.1H55.2z"></path>
                                        <path class="st5" d="M97.6,89.3h-8v-4.5c-2.7,3.3-8.1,5.7-12.7,5.7c-9.3,0-17.6-7.4-17.6-19.5c0-11.1,8.1-19.1,18.2-19.1
                                            c7.4,0,11.8,5.3,12,5.8h0.1v-4.6h8V89.3z M78.8,59.8c-7.1,0-10.8,6.1-10.8,11.6c0,6.1,4.6,11.2,10.8,11.2c6,0,10.6-4.7,10.6-11.4
                                            C89.3,63.6,83.9,59.8,78.8,59.8z"></path>
                                    </g>
                                </g>
                                <g>
                                    <path class="st5" d="M108.8,46.6c0.1,0,0.3,0,0.4,0c0.5,0,1,0,1.5,0c0.1,0,0.1,0,0.2,0.1c0.3,1,0.7,1.9,1,2.9
                                        c0.2,0.4,0.3,0.9,0.5,1.3c0,0,0,0.1,0,0.1c0.5-1.5,1-3,1.4-4.5c0.7,0,1.3,0,2,0c0,2.2,0,4.3,0,6.5c-0.4,0-0.9,0-1.3,0
                                        c0-1.5,0-3,0-4.5c0,0,0,0,0,0c-0.1,0.2-0.1,0.3-0.2,0.5c-0.4,1.1-0.7,2.1-1.1,3.2c-0.1,0.3-0.2,0.5-0.3,0.8c0,0.1-0.1,0.1-0.1,0.1
                                        c-0.3,0-0.6,0-0.9,0c0,0-0.1,0-0.1-0.1c-0.3-0.8-0.6-1.6-0.8-2.4c-0.2-0.7-0.5-1.3-0.7-2c0,0,0,0,0-0.1c0,1.5,0,3,0,4.5
                                        c-0.5,0-0.9,0-1.3,0C108.8,50.9,108.8,48.8,108.8,46.6z"></path>
                                    <path class="st5" d="M102.7,47.8c0-0.4,0-0.8,0-1.2c1.8,0,3.6,0,5.3,0c0,0.4,0,0.8,0,1.2c-0.6,0-1.3,0-2,0c0,1.8,0,3.5,0,5.3
                                        c-0.5,0-1,0-1.4,0c0-1.8,0-3.5,0-5.3C104,47.8,103.4,47.8,102.7,47.8z"></path>
                                </g>
                                </svg>