<?xml version="1.0" encoding="utf-8"?>
<!-- Generator: Adobe Illustrator 21.0.0, SVG Export Plug-In . SVG Version: 6.00 Build 0)  -->
<svg version="1.1" id="Layer_1" xmlns="http://www.w3.org/2000/svg" xmlns:xlink="http://www.w3.org/1999/xlink" x="0px" y="0px"
	 viewBox="0 0 100 100" style="enable-background:new 0 0 100 100;" xml:space="preserve">
<style type="text/css">
	.st0{fill:#29ABE2;}
	.st1{fill:#155671;}
</style>
<path class="st0" d="M53.5,72.8c0-12.6,10.3-22.9,22.9-22.9c6,0,11.4,2.4,15.4,6.1c0.2-2,0.5-4,0.5-6.1C92.3,24.5,71.8,4,46.5,4
	S0.6,24.6,0.6,49.8c0,25.4,20.6,45.8,45.8,45.8c6.3,0,12.3-1.3,17.8-3.6C57.8,88,53.5,80.9,53.5,72.8z"/>
<path class="st0" d="M91.9,55.9c-2.1,16.4-13,30-27.7,36.2c3.6,2.2,7.7,3.6,12.2,3.6c12.6,0,22.9-10.3,22.9-22.9
	C99.4,66.1,96.4,60,91.9,55.9z"/>
<path class="st1" d="M91.9,55.9c-4.1-3.7-9.5-6.1-15.4-6.1c-12.6,0-22.9,10.3-22.9,22.9c0,8.1,4.3,15.3,10.8,19.4
	C79,85.9,89.7,72.3,91.9,55.9z"/>
</svg>
