<?xml version="1.0" encoding="utf-8"?>
<!-- Generator: Adobe Illustrator 19.2.1, SVG Export Plug-In . SVG Version: 6.00 Build 0)  -->
<svg version="1.1" id="Layer_1" xmlns="http://www.w3.org/2000/svg" xmlns:xlink="http://www.w3.org/1999/xlink" x="0px" y="0px"
	 viewBox="0 0 181 47" style="enable-background:new 0 0 181 47;" xml:space="preserve">
<style type="text/css">
	.st0{fill:#50748A;}
	.st1{fill:#F7B334;}
</style>
<g>
	<path class="st0" d="M154.2,13.5c0-1.8-1.3-2-2.4-2v-0.7l5.7-0.8l0.2,3.5h0.1c1.1-2,3.5-4,7.1-4c3,0,7.6,1.8,7.6,9.1v12.8h-3.9V19
		c0-3.5-1.3-6.4-5-6.4c-2.5,0-4.5,1.8-5.2,4c-0.2,0.5-0.3,1.2-0.3,1.8v12.9h-3.9C154.2,31.4,154.2,14.2,154.2,13.5"/>
	<path class="st0" d="M46.7,21.3c0.1,5.3,3.4,7.4,7.3,7.4c2.8,0,4.5-0.5,5.9-1.1l0.7,2.7c-1.4,0.6-3.8,1.4-7.2,1.4
		C47,31.8,43,27.5,43,21S46.9,9.4,53.1,9.4c7,0,8.8,6.2,8.8,10.1c0,0.8,0,1.4-0.1,1.9L46.7,21.3z M58.1,18.5c0-2.4-1-6.3-5.4-6.3
		c-4,0-5.7,3.6-6,6.3H58.1z"/>
	<path class="st0" d="M147.4,26.3c0,1.9,0.1,3.7,0.3,5.1h-3.5l-0.4-2.7h-0.1c-1.2,1.7-3.5,3.2-6.6,3.2c-4.3,0-6.5-3.1-6.5-6.2
		c0-5.2,4.6-8,12.9-8v-0.4c0-1.8-0.5-5-4.9-5c-2,0-4.1,0.6-5.6,1.6l-0.9-2.6c1.8-1.1,4.4-1.9,7.1-1.9c6.6,0,8.2,4.5,8.2,8.8V26.3z
		 M143.6,20.5c-4.2-0.1-9.1,0.7-9.1,4.8c0,2.6,1.7,3.7,3.6,3.7c2.8,0,4.7-1.8,5.3-3.6c0.1-0.4,0.2-0.8,0.2-1.2V20.5z"/>
	<path class="st0" d="M84,10h3.9v21.4H84V10z M88.3,5.7c0-1.3-1-2.3-2.3-2.3s-2.3,1-2.3,2.3S84.7,8,86,8S88.3,7,88.3,5.7"/>
	<path class="st0" d="M120.9,10h3.9v21.4h-3.9V10z M125.3,5.7c0-1.3-1-2.3-2.3-2.3s-2.3,1-2.3,2.3s1,2.3,2.3,2.3S125.3,7,125.3,5.7"
		/>
	<path class="st0" d="M71.3,10l-5.7,0.8v0.7c1.3,0,2.4,0.3,2.4,2.6c0,0.8,0,1.7,0,2.6l0,14.7h3.9V20c0-0.7,0-1.3,0.1-1.8
		c0.5-2.9,2.5-5,5.2-5c0.5,0,0.9,0,1.4,0.1V9.7c-0.4-0.1-0.7-0.1-1.1-0.1c-2.6,0-5,1.8-6,4.7h-0.1L71.3,10z"/>
	<path class="st0" d="M106.1,10.1c3.2,1.6,2.6,5.5,2.6,5.5c-0.9-1.8-2.7-3-5.1-3c-4,0-6.4,3.6-6.4,8.2c0,4.4,2.2,8,6.3,8
		c2.6,0,5-1.8,5.7-4.6c0.1-0.5,0.2-1.1,0.2-1.7v-21h3.9V26c0,1.9,0,4.1,0.2,5.5H110l-0.2-3.7h-0.1c-1.2,2.4-3.8,4.2-7.3,4.2
		c-5.2,0-9.2-4.4-9.2-10.9c0-7.2,4.4-11.5,9.6-11.5C103.7,9.5,105.1,9.6,106.1,10.1"/>
</g>
<path class="st0" d="M178.7,6.2h0.7v3.2H179V6.5l0,0l-1.2,2.9h-0.2l-1.2-2.9l0,0v2.9H176V6.2h0.7l1,2.6L178.7,6.2z M174,6.5h-1.1
	V6.2h2.5v0.3h-1.1v2.9H174V6.5z"/>
<path class="st1" d="M23.2,45.8c-3.5,0-6.8-0.5-9.8-1.6c-2.4-0.8-4.6-2-6.6-3.5c-3.3-2.5-4.8-5-4.8-5.1c-0.2-0.3-0.3-0.6-0.5-0.8
	c0,0-0.1-0.2-0.1-0.4c0-0.3,0.2-0.7,0.7-0.7c0.4,0,0.7,0.4,0.7,0.4c0.3,0.3,1.5,2.3,4.6,4.4c2.9,2,8.1,4.3,15.8,4.3S36,40.4,39,38.5
	c3.1-2.1,4.4-4.1,4.6-4.4c0,0,0.3-0.4,0.7-0.4c0.5,0,0.7,0.5,0.7,0.7s-0.1,0.4-0.1,0.4c-0.1,0.3-0.3,0.5-0.5,0.8
	c-0.1,0.1-1.6,2.6-4.8,5.1c-2,1.5-4.2,2.6-6.6,3.5C30,45.3,26.7,45.8,23.2,45.8"/>
<path class="st0" d="M9.9,4C10,2.2,7.1,2.5,7.1,2.5V1.6H15L20,16c1.2,3.7,2.2,6.9,3,10h0.1c0.8-3,1.9-6.3,3.2-10l5.3-14.4h4.9
	l1.9,29.8h-3.8l-0.7-13.1c-0.2-4.2-0.5-9.2-0.5-12.9h-0.1c-1.1,3.5-2.3,7.2-3.8,11.3l-5.3,14.5h-2.9L16.5,17
	c-1.4-4.2-2.6-8.1-3.4-11.6H13c-0.1,3.7-0.3,8.7-0.6,13.2l-0.8,12.8H8L9.9,4z"/>
</svg>
