<svg width="300" height="84.8" xmlns="http://www.w3.org/2000/svg" version="1.1">
 <desc>Logo of National Bank of Canada</desc>
 <defs>
  <linearGradient spreadMethod="pad" id="svg_1" y2="0" x2="1" y1="0" x1="0">
   <stop stop-color="#ed1c24" offset="0" id="stop66"/>
   <stop stop-color="#ed1c24" offset="0.33147" id="stop68"/>
   <stop stop-color="#aa161e" offset="0.39327" id="stop70"/>
   <stop stop-color="#aa161e" offset="0.39327" id="stop72"/>
   <stop stop-color="#aa161e" stop-opacity="0.99219" offset="0.57294" id="stop76"/>
   <stop stop-color="#ed1c24" offset="0.63544" id="stop74"/>
   <stop stop-color="#ed1c24" offset="1" id="stop78"/>
  </linearGradient>
 </defs>
 <g>
   <path fill="#17314b" fill-rule="nonzero" id="path30" d="m131.55658,12.94634l0,16.49289l-0.07622,0l-10.8891,-19.10525l-6.03667,2.94612l0,24.48987l5.35098,0l0,-19.56256l0.07509,0l11.19498,19.56256l5.73193,0l0,-27.4338l-5.35098,2.61015"/>
   <path fill="#17314b" fill-rule="nonzero" id="path32" d="m149.10817,27.37735l3.51768,-10.8588l0.07396,0l3.40334,10.8588l-6.99498,0zm6.91302,-17.04567l-0.00812,0l-7.98666,3.89868l-8.3931,23.53963l6.03801,0l1.90828,-5.65695l10.12596,0l1.75946,5.65695l6.22731,0l-9.67114,-27.43831"/>
   <path fill="#17314b" fill-rule="nonzero" id="path34" d="m261.20477,27.37735l3.52115,-10.8588l0.08087,0l3.39407,10.8588l-6.99609,0zm6.92688,-17.04567l-0.01154,0l-7.98898,3.89868l-8.39311,23.53963l6.03795,0l1.90485,-5.65695l10.12482,0l1.76633,5.65695l6.22272,0l-9.66293,-27.43831"/>
   <path fill="#17314b" fill-rule="nonzero" id="path36" d="m184.60846,10.33398l-19.50261,0l-2.79036,4.82943l0,0.02517l8.29025,0l0,22.5814l5.73431,0l0,-22.5814l5.47226,0l2.79613,-4.8546"/>
   <path fill="#17314b" fill-rule="nonzero" id="path38" d="m186.89543,13.1232l0,24.64678l5.73317,0l0,-27.436l-0.01038,0l-5.72279,2.78922"/>
   <path fill="#17314b" fill-rule="nonzero" id="path40" d="m209.58786,33.63234c-3.09398,0 -7.45789,-1.9094 -7.45789,-9.59121c0,-7.68088 4.36391,-9.58808 7.45789,-9.58808c3.09399,0 7.4464,1.9072 7.4464,9.58808c0,7.68181 -4.3524,9.59121 -7.4464,9.59121m0,-24.03169c-0.254,0 -0.54262,0.00496 -0.84276,0.02655l-9.48985,4.6297c-1.68549,2.15287 -2.85158,5.27366 -2.85158,9.78422c0,12.87928 9.54756,14.44589 13.18419,14.44589c3.62512,0 13.17259,-1.56661 13.17259,-14.44589c0,-12.87604 -9.54747,-14.44048 -13.17259,-14.44048"/>
   <path fill="#17314b" fill-rule="nonzero" id="path42" d="m243.54121,12.94634l0,16.49289l-0.06923,0l-10.89836,-19.10525l-6.0264,2.94612l0,24.48987l5.34523,0l0,-19.56256l0.06934,0l11.20996,19.56256l5.72629,0l0,-27.4338l-5.35683,2.61015"/>
   <path fill="#17314b" fill-rule="nonzero" id="path44" d="m299.9837,32.8034l-13.63437,0l0,-22.46722l-5.73776,2.79742l0,24.63638l16.50906,0l2.86307,-4.96658"/>
   <path fill="#17314b" fill-rule="nonzero" id="path46" d="m127.08522,70.06567l-7.03083,0l0,-7.3274l7.29871,0c2.06067,0 4.12727,0.91552 4.12727,3.31914c0,2.78889 -1.60365,4.00826 -4.39516,4.00826m-7.03083,-17.95436l6.57253,0c2.5976,0 4.20348,0.68897 4.20348,2.94252c0,2.17723 -1.79529,3.06157 -4.04993,3.06157l-6.72607,0l0,-6.00409zm12.91644,7.91129c1.14749,-0.57724 3.36174,-1.68206 3.36174,-5.61863c0,-2.82756 -1.7236,-7.031 -8.44496,-7.031l-7.55148,0l-5.78164,2.82301l0,24.61434l11.6129,0c5.61662,0 7.11166,-0.95567 8.67709,-2.48658c1.4512,-1.41425 2.36903,-3.47742 2.36903,-5.65573c0,-2.70841 -0.88095,-5.3823 -4.24269,-6.64542"/>
   <path fill="#17314b" fill-rule="nonzero" id="path48" d="m183.36853,49.98668l0,16.492l-0.07509,0l-10.8856,-19.10571l-6.03679,2.94968l0,24.48767l5.34871,0l0,-19.56348l0.07623,0l11.19382,19.56348l5.73431,0l0,-27.43469l-5.35559,2.61105"/>
   <path fill="#17314b" fill-rule="nonzero" id="path50" d="m147.39484,64.41104l3.51541,-10.84638l0.07622,0l3.40222,10.84638l-6.99385,0zm6.91302,-17.03807l-0.0069,0l-7.98901,3.89637l-8.39197,23.54097l6.03566,0l1.90837,-5.65554l10.12819,0l1.75372,5.65554l6.23532,0l-9.6734,-27.43735"/>
   <path fill="#17314b" fill-rule="nonzero" id="path52" d="m217.11511,47.38245l-8.87802,1.56429l-8.99333,9.5831l0,-11.1519l-5.7263,2.79821l0,24.63417l5.7263,0l0,-9.28996l2.67842,-2.7464l8.48543,12.03636l7.36555,0l-11.83342,-16.20286l11.17537,-11.22501"/>
   <path fill="#ed1c24" fill-rule="nonzero" id="path54" d="m92.25451,10.10309l0,64.47775l-34.64829,9.26691c-1.58741,0.36715 -2.73265,0.61061 -3.87788,0.19167c-0.87736,-0.37881 -1.59429,-1.31947 -2.21426,-2.19802l-10.68357,-14.68626c-0.62233,-0.88655 -1.33227,-1.85168 -2.20512,-2.20518c-1.14287,-0.44426 -2.29273,-0.16962 -3.88939,0.17582l-34.736,9.28765l0,-64.49263l34.61357,-9.29033c1.58279,-0.35085 2.73964,-0.63045 3.88375,-0.17548c0.87848,0.36125 1.62315,1.34163 2.24311,2.22145l10.72393,14.69897c0.62696,0.89334 1.31965,1.87107 2.21201,2.21152c1.15685,0.43293 2.29284,0.18357 3.87563,-0.17768l34.70252,-9.30614"/>
   <path fill="url(#svg_1)" fill-rule="nonzero" id="path80" d="m32.99741,4.15244l-30.26938,8.14002l0,61.38497l32.00798,-8.55212c1.60252,-0.34544 2.74651,-0.62239 3.8895,-0.17815c0.87973,0.35583 1.58279,1.32095 2.20501,2.20531l10.68819,14.68394c0.61535,0.88306 1.33464,1.82373 2.20975,2.20034c1.14524,0.41895 2.29509,0.17532 3.87788,-0.19398l34.64829,-9.26701l0,-60.5249l-35.69893,9.56948c-1.60117,0.36126 -2.73727,0.62332 -3.91475,0.19039c-0.90634,-0.35409 -1.64288,-1.30781 -2.29972,-2.18762l-11.26317,-15.43174c-0.6627,-0.87981 -1.31841,-1.85892 -2.20501,-2.2166c-0.42606,-0.16277 -0.85899,-0.22765 -1.31153,-0.22765c-0.76078,0 -1.57704,0.18484 -2.56409,0.40534"/>
 </g>
</svg>