<?xml version="1.0" encoding="utf-8"?>
<!-- Generator: Adobe Illustrator 21.0.0, SVG Export Plug-In . SVG Version: 6.00 Build 0)  -->
<svg version="1.1" id="Layer_1" xmlns="http://www.w3.org/2000/svg" xmlns:xlink="http://www.w3.org/1999/xlink" x="0px" y="0px"
	 viewBox="0 0 100 100" style="enable-background:new 0 0 100 100;" xml:space="preserve">
<style type="text/css">
	.st0{fill:#005DAA;}
	.st1{fill:#FFD200;}
	.st2{fill:#FFFFFF;}
</style>
<path class="st0" d="M86.2,86c0,3.1-1.3,5-3.8,5.9c-9.8,3.8-21.4,5.7-32.4,5.7c-11,0-22.6-1.9-32.4-5.7c-2.5-1-3.8-2.8-3.8-5.9V2.4
	h72.5V86z"/>
<path class="st1" d="M33.2,53.3c-10-6.3-13.3-9-13.6-13.1c0-0.8,0.1-2.2,0.5-3.2l-0.9-0.6c-0.8,1.2-1.2,2.8-1.2,4.2
	c0,2.4,0.8,4.2,1.7,5.6c1.4,2.2,2.9,3.5,6.5,6.3c3.9,3,6.6,6.4,8.2,10h0.6v-4.1c5.3,3,10,5.9,12.3,10.9h0.6
	C46.8,64,43.9,60,33.2,53.3"/>
<path class="st1" d="M79.4,69.3h-0.7c0-3.7-3.4-4.8-7-4.8H60.5c0.4,1.8,0.5,4,0.3,6h-0.6c-1-8.4-5.8-12.6-12.4-17v3.8h-0.6
	c-1.8-4-5.6-7.7-9.3-10.3c-1-0.7-2-1.4-3-2.1v4.1h-0.6c-1.6-4.1-4.4-7.1-8.4-10.8c-4.4-3.9-6.1-6.3-7.1-9c-0.6-1.6-0.8-3-0.8-4.8
	c0-3.2,1.6-6.1,3.6-7.2v1.6c-1,1.3-1.5,3-1.5,4.7c0,1.6,0.4,3.3,1.2,4.8c2.5,4.7,10.7,10.4,16,13.9C53.5,53.3,56.7,55.2,59.4,61
	c0.3,0.6,0.6,1.5,0.9,2.5c2.4-0.4,10.9-1.7,12.5-1.9c0.3,0,0.9-0.1,1.3-0.1c1.5-0.9,2.6-2.1,3.6-3.6l-6.2-0.5
	c-0.3,0.7-0.6,1.3-0.9,1.8H70c0.2-0.6,0.3-1.3,0.5-1.9l-1.6-0.1v-0.3l1.7-0.2c0.3-1.8,0.5-3.4,0.5-5l-7.9-0.4c0,0.8,0,1.6,0,2.3
	h-0.5c-0.2-0.8-0.3-1.6-0.4-2.3l-1.7-0.1v-0.5l1.6-0.1c-0.2-2.1-0.2-4-0.2-5.7l-4.6-0.2c0.2,0.4,0.4,0.8,0.6,1.3
	c1,2.8,0.8,6,0.4,7.5h-0.6c-0.1-1.7-0.7-3.9-1.2-5.2c-1.3-3-4.1-5.7-8.9-8.7v3.8h-0.6c-1.6-5-5.6-7.8-11.5-10.9
	c-4.9-2.5-6.4-5.5-6.1-10.2l1.6,1c0.4,4.4,3.8,6.9,7.3,6.8c2.1,0,4-0.3,5.9-0.7c2.7-0.5,5.2-1,7.3-0.3v-2.6H50
	c-0.6,0.5-1.8,1.1-3.5,1.1c-1.9,0-5.6-1.1-5.6-5.1c0-3.5,3-4.1,5.4-4.1c1.3,0,3.5,0,4.2-0.1c0.5,0,0.9-0.1,1.2-0.4
	c0.3-0.3,0.4-0.5,0.4-0.9c0.1-0.4,0.1-0.9,0.1-1.6v-2.6H41v4.5l-4.3-1.6v-1.1h2v-1.8h-7.6V9.1h-2.6c-1.4,0-3,1-3.1,2.8
	c-0.1,1.8,0.7,3.3,2.6,3.3h0.3v2.2h-0.3c-3.3,0-5.7-2.4-5.7-5.7c0-3.4,2.9-6,6.4-6h5.5v3.7h21.4V15c0,0.9-0.1,2.2-0.1,2.9
	c-0.1,0.6-0.3,1.6-1.3,2.4c-0.7,0.5-1.6,0.7-3.2,0.7c-0.5,0-2,0-3.9-0.1c-2.4-0.2-3.1,0.8-3.2,1.7c0,0.2,0,0.4,0,0.5
	c1.1-0.9,2.8-1.5,4.6-0.9c3.2,1,4.1,1.1,5.8-0.2l0.2,0.4c-0.2,0.3-0.5,0.7-1,1H55v8.4l4.8-2.9h13.6c0,0,5.7,3,6.7,3.5
	c0.8,0.4,1.2,1,1.3,1.8c0.1,0.7-0.1,1.5-0.4,2c-0.2,0.3-1.8,2.9-2.6,4.3c2.3,2.5,3.9,6,3.9,9.9c0,3.5-1.3,8.1-5.6,11.5
	c1.9,0.6,3.1,1.6,4,3L79.4,69.3z M49.1,23.9c-1.9-0.4-3-0.2-4.1,0.9c0.5,0.3,1.2,0.4,2,0.3C48.1,25,48.7,24.4,49.1,23.9 M48,36
	l5.4-3.2c-1.1-0.5-2.2-0.9-3.6-0.9c-1.9,0-5,0.8-6.5,1.1C44,33.4,46.4,35,48,36 M72,36.4l0.7-1.1l-1.2-1.5l0.2-0.3l3.2,1.8l-0.7,2.1
	c0.5,0.3,1,0.6,1.6,1l2.1-3.4L72.7,32h-12l-9.7,5.9c1.8,1.3,3.5,2.6,4.7,4c2.6-3.8,7.2-6.2,11.7-6.2C68.9,35.7,70.6,35.9,72,36.4
	 M71.1,50c-0.1-1.8-0.3-3.4-0.6-4.8l-6.4-0.3c-0.4,1.9-0.7,3.8-0.9,5.6L71.1,50z M73.2,45.2c0.2,1.6,0.2,3.2,0.1,4.6l6.3-0.3
	c-0.2-1.4-0.6-2.8-1.2-4L73.2,45.2z M70,43.2c-0.7-2.3-1.4-3.9-1.9-4.6c-0.3,0-0.5,0-0.8,0c-0.4,0-0.9,0.1-1.3,0.1
	c-0.6,1.6-1.2,3.2-1.6,4.8L70,43.2z M71.7,39.4c0.5,1.3,0.8,2.5,1.1,3.7l3.9-0.2C75.3,41.3,73.7,40.1,71.7,39.4 M78.8,55.6
	c0.5-1.1,0.7-2.2,0.8-3.5l-6.6-0.4c-0.3,1.8-0.8,3.4-1.3,4.7L78.8,55.6z M62.7,39.6c-2.2,1-3.7,2.3-5.1,4.2l4.5-0.2
	C62.3,41.6,62.5,40.3,62.7,39.6"/>
<path class="st2" d="M54.3,79c1.8-0.3,3.6-1.7,3.6-3.9c0-1.9-0.8-4.1-6.5-4.1h-9.6v0.2c0.3,0.1,0.8,0.3,1.1,0.6
	c0.7,0.6,0.9,1.6,0.9,2.9v14.4h8c4.4,0,7.6-1.7,7.6-5.5C59.3,80.4,56.8,79.1,54.3,79 M50.2,72.7c2,0,3.4,0.4,3.4,2.6
	c0,2.3-1.9,3-4,3h-1.8v-5.6H50.2z M50.4,87.4h-2.6V80h2.5c3.4,0,4.7,1,4.7,3.5C55,86.3,53.3,87.4,50.4,87.4"/>
<path class="st2" d="M34.7,89.1h5.2l-6.6-8.5c2.7-0.7,4.7-2.2,4.7-4.8c0-3.1-1.9-4.7-6.7-4.7h-10v0.2c0.4,0.1,0.8,0.4,1.1,0.6
	c0.7,0.7,0.9,1.8,0.9,3.2v14.1h4.2v-8h1.5L34.7,89.1z M27.3,72.7h2.8c2.3,0,3.6,0.7,3.6,3.2c0,2.2-1.6,3.5-4.2,3.5h-2.2V72.7z"/>
<path class="st2" d="M76.1,73.5c1.1,0.6,1.5,1.5,1.5,1.5c0.1,0.1,0.2,0,0.2,0l0.9-3.1c0,0-1.6-1.2-5.5-1.2c-5.9,0-10.3,3-10.3,9.4
	c0,7.3,5.2,9.2,9.8,9.2c4.3,0,6-1.4,6-1.4v-2.1c0,0-1.5,1.4-4.8,1.4c-2.7,0-6.6-1.2-6.7-7.2c-0.1-5.5,2.3-7.3,5.6-7.3
	C74.6,72.7,75.5,73.2,76.1,73.5"/>
</svg>
