<svg id="e2f38b9c-e6b7-4bc1-96fa-3855b70be505" data-name="Logo" xmlns="http://www.w3.org/2000/svg" viewBox="0 0 1293.77 227.93"><title>zag</title><path d="M9,171h94.5a9,9,0,0,0,9-9V117l61.32-74.09c3.17-3.8,1.71-6.92-3.24-6.92H112.5V9a9,9,0,0,0-9-9H9A9,9,0,0,0,0,9V162A9,9,0,0,0,9,171Z" style="fill:#a1abb2"/><path d="M328.5,0H234a9,9,0,0,0-9,9V54l-61.32,74.09c-3.17,3.8-1.71,6.92,3.24,6.92H225v27a9,9,0,0,0,9,9h94.5a9,9,0,0,0,9-9V9A9,9,0,0,0,328.5,0Z" style="fill:#9253a1"/><path d="M372.32,133.29l65.82-95.81H373.49V0H486V36.54l-66.29,96.51H486V171H372.32Z" style="fill:#9253a1"/><path d="M489.66,112.44c0-37.71,25.53-60.91,53.17-60.91,14.52,0,24.6,5.86,31.16,15.46V53.88h39.82V171H574V157.18c-6.79,10.31-17.56,16.17-31.86,16.17C515.43,173.35,489.66,150.62,489.66,112.44Zm85.74-.24c0-13.59-9.6-24.36-23-24.36S529,98.39,529,112.21c0,14.05,10.07,24.36,23.43,24.36S575.4,125.79,575.4,112.21Z" style="fill:#9253a1"/><path d="M621.14,112.44c0-37.71,25.53-60.91,53.17-60.91,14.52,0,24.6,6.09,31.16,15.46V53.88h39.35v115c0,33.5-19.44,59-60,59-28.81,0-49.66-13.59-60.9-32.56l38.42-17.8c4.22,8.9,11.48,14.76,22.49,14.76,13.12,0,20.38-9.13,20.38-22.72V157.89c-6.79,9.84-17.57,15.46-31.62,15.46C646.91,173.35,621.14,150.62,621.14,112.44Zm85.73-.24c0-13.59-9.6-24.36-23-24.36S660.5,98.39,660.5,112.21c0,14.05,10.07,24.36,23.42,24.36S706.87,125.79,706.87,112.21Z" style="fill:#9253a1"/><path d="M779.64,0H837.5c41.23,0,62.31,16.4,62.31,48.49,0,15-6.09,26-16.63,33.26C897,89,904.73,101.2,904.73,119c0,35.61-24.6,52-65.6,52H779.64Zm39.82,35.84V65.36h19.91c14.52,0,19.91-6.33,19.91-15.46,0-9.37-5.86-14.05-20.15-14.05Zm0,66.29v32.79h20.61c15.93,0,23-6.09,23-16.86s-5.39-15.93-23.19-15.93Z" style="fill:#9253a1"/><path d="M912,112.44c0-37.71,25.53-60.9,53.17-60.9,14.53,0,24.6,5.86,31.15,15.46V53.88h39.82V171H996.36V157.18c-6.79,10.31-17.57,16.16-31.86,16.16C937.8,173.35,912,150.63,912,112.44Zm85.73-.24c0-13.59-9.6-24.36-22.95-24.36s-23.43,10.54-23.43,24.36c0,14.05,10.07,24.36,23.43,24.36S997.77,125.8,997.77,112.21Z" style="fill:#9253a1"/><path d="M1047.15,53.88h39.59V67A36.65,36.65,0,0,1,1117,51.54c25.07,0,41.47,16.4,41.47,44.74V171H1117.9V104.95c0-12.18-4.93-19-15.24-19-9.13,0-15.69,6.56-15.69,20.61V171h-39.82Z" style="fill:#9253a1"/><path d="M1222.09,130.48l-13.59,16.63V171h-39.12V0h39.12V99.33l36.78-45.44h46.62l-41.7,51.07L1293.77,171h-44.51Z" style="fill:#9253a1"/></svg>